# xmcd
#
# Track frame offsets: 
#        150
#        7875
#        17014
#        26481
#        35864
#        45588
#        55619
#        65197
#        77088
#        87112
#        98850
#        109759
#        120487
#        131633
#        139121
#        148609
#        159692
#        172259
#        179002
#        189528
#        205146
#        221495
#        232724
#        247192
#        260643
#        275083
#
# Disc length: 3817 seconds
#
# Revision: 0
# Processed by: cddbd v1.5.2PL0 Copyright (c) Steve Scherf et al.
# Submitted via: ExactAudioCopy v0.99pb5
#
DISCID=7d0ee71a
DTITLE=Elvis Presley  - FTD 58-2 - Writing For The King - CD 2  FLAC
DYEAR=1900
DGENRE=
TTITLE0=Heartbreak Hotel (Sung By Glenn Reeves)
TTITLE1=Teaddy Bear (Sung By Otis Blackwell)
TTITLE2=Don't Ask Me Why (Sung By Jimmy Breedlove)
TTITLE3=Hard Headed Woman (Sung By Jimmy Breedlove)
TTITLE4=Trouble (Sung By Unkown)
TTITLE5=Wear My Ring Around Your Neck (Sung By Gus Coletti)
TTITLE6=Pocketful Of Rainbows (Sung By Jimmy Breedlove)
TTITLE7=No More (Sung By Don Robertson)
TTITLE8=His Latest Flame (Sung By Mort Shuman)
TTITLE9=Good Luck Charm (Sung By Robert Moseley)
TTITLE10=Devil In Disguise (Sung By Bill Giant)
TTITLE11=Viva Las Vegas (Sung By Mort Shuman)
TTITLE12=C'mon Everybody (Sung By Bob Johnston)
TTITLE13=Kissin' Cousins (Sung By Malcolm Dodd)
TTITLE14=My Desert Serenade (Sung By Kenny Karen)
TTITLE15=Could I Fall In Love (Sung By Malcom Dodd)
TTITLE16=The Love Machine (Sung By Gerald Nelson)
TTITLE17=Clambake (Sung By Winfield Scott)
TTITLE18=Wearin' That Loved On Look (Sung By Dallas Frazier)
TTITLE19=I've Lost You (Sung By Peter Lee Sterling)
TTITLE20=The Next Step Is Love (Sung By Paul Evans)
TTITLE21=Mary In The Morning (Sung By J. Cymbal)
TTITLE22=Burning Love (Sung By Dennis Linde)
TTITLE23=T-R-O-U-B-L-E (Sung By Jerry Chesnut)
TTITLE24=Raised On Rock (Sung By Mark James)
TTITLE25=Way Down (Sung By Layng Martine Jr.)
EXTD=
EXTT0=
EXTT1=
EXTT2=
EXTT3=
EXTT4=
EXTT5=
EXTT6=
EXTT7=
EXTT8=
EXTT9=
EXTT10=
EXTT11=
EXTT12=
EXTT13=
EXTT14=
EXTT15=
EXTT16=
EXTT17=
EXTT18=
EXTT19=
EXTT20=
EXTT21=
EXTT22=
EXTT23=
EXTT24=
EXTT25=
PLAYORDER=
